# xmcd
#
# Track frame offsets: 
#        150
#        20747
#        43641
#        79491
#        106538
#        127215
#        176944
#        195759
#        222613
#        245958
#
# Disc length: 3738 seconds
#
# Revision: 0
# Processed by: cddbd v1.5.2PL0 Copyright (c) Steve Scherf et al.
# Submitted via: ExactAudioCopy v0.99pb4
#
DISCID=950e980a
DTITLE=Stu Blank and Friends - BBQ Blues, Live form the Majic Lamp
DYEAR=1900
DGENRE=Blues
TTITLE0=It's gonna be alright (Part 1)
TTITLE1=Off my mind
TTITLE2=Black night
TTITLE3=If the river was whiskey
TTITLE4=Kidney stew
TTITLE5=Cigarette blues
TTITLE6=On my way to school
TTITLE7=I wanna know
TTITLE8=I got my mojo workin'
TTITLE9=It's gonna be alright (Part 2)
EXTD=
EXTT0=
EXTT1=
EXTT2=
EXTT3=
EXTT4=
EXTT5=
EXTT6=
EXTT7=
EXTT8=
EXTT9=
PLAYORDER=
